<?xml version="1.0" standalone="no"?><!DOCTYPE svg PUBLIC "-//W3C//DTD SVG 1.1//EN" "http://www.w3.org/Graphics/SVG/1.1/DTD/svg11.dtd"><svg t="1544582389113" class="icon" style="" viewBox="0 0 1024 1024" version="1.1" xmlns="http://www.w3.org/2000/svg" p-id="8313" xmlns:xlink="http://www.w3.org/1999/xlink" width="128" height="128"><defs><style type="text/css"></style></defs><path d="M963.555732 1.915093h-13.405648c-0.478773 0-0.957546-0.478773-0.957546-0.957547s0.478773-0.957546 0.957546-0.957546h13.405648c0.478773 0 0.957546 0.478773 0.957546 0.957546s-0.478773 0.957546-0.957546 0.957547z" fill="#333333" p-id="8314"></path><path d="M822.987937 862.366187V334.183654c0-44.813166-36.674023-81.391434-81.391434-81.391434H143.225828l679.762109 609.573967z" fill="#FA8C23" p-id="8315" data-spm-anchor-id="a313x.7781069.0.i12" class="selected"></path><path d="M749.448382 390.870395c-5.17075-5.17075-13.788667-5.17075-18.959416 0L609.933888 511.329718l-79.955115-70.666916c-5.553768-4.883486-14.07593-4.308958-18.959416 1.149055-4.883486 5.553768-4.308958 14.07593 1.149055 18.959417l89.434823 78.997568c5.553768 4.883486 14.07593 4.308958 18.959417-1.149055l0.191509-0.191509 128.694221-128.694222c5.266505-5.17075 5.266505-13.692912 0-18.863661z" fill="#FFFFFF" p-id="8316"></path></svg>