<?xml version="1.0" standalone="no"?><!DOCTYPE svg PUBLIC "-//W3C//DTD SVG 1.1//EN" "http://www.w3.org/Graphics/SVG/1.1/DTD/svg11.dtd"><svg t="1544517299109" class="icon" style="" viewBox="0 0 1024 1024" version="1.1" xmlns="http://www.w3.org/2000/svg" p-id="6140" xmlns:xlink="http://www.w3.org/1999/xlink" width="128" height="128"><defs><style type="text/css"></style></defs><path d="M626.385706 822.472159H219.413406a36.760099 36.760099 0 0 0-36.615032 36.615032 37.906132 37.906132 0 0 0 8.558982 23.41389H39.210586a36.615031 36.615031 0 0 0 0 73.230063h60.173989a36.527991 36.527991 0 0 0 18.162448 68.268754h406.914273a36.615031 36.615031 0 0 0 0-73.230062h-60.159482A36.513484 36.513484 0 0 0 482.768903 919.101606a37.906132 37.906132 0 0 0-8.558981-23.413891H626.385706a36.615031 36.615031 0 1 0 0-73.230062z" fill="#CAFFD0" p-id="6141"></path><path d="M842.536246 970.528026H292.179252a7.383935 7.383935 0 0 1-7.427455-7.427454V262.19255a7.383935 7.383935 0 0 1 7.427455-7.427455H842.536246a7.383935 7.383935 0 0 1 7.427455 7.427455v700.966049A7.253374 7.253374 0 0 1 842.536246 970.528026z" fill="#FFC69F" p-id="6142"></path><path d="M554.998 675.634859H351.990573a4.352024 4.352024 0 0 1-4.352024-4.352024v-27.751408a4.352024 4.352024 0 0 1 4.352024-4.352025h203.007427a4.352024 4.352024 0 0 1 4.352024 4.352025v27.765915a4.250477 4.250477 0 0 1-4.352024 4.352024z m0-108.191324H351.990573a4.352024 4.352024 0 0 1-4.352024-4.352024V535.325595a4.352024 4.352024 0 0 1 4.352024-4.352024h203.007427a4.352024 4.352024 0 0 1 4.352024 4.352024v27.765916a4.250477 4.250477 0 0 1-4.352024 4.352024z" fill="#FFE4D2" p-id="6143"></path><path d="M429.398579 222.879264h-30.87036a9.574453 9.574453 0 1 1 0-19.148907h30.87036a9.574453 9.574453 0 0 1 0 19.148907z m-177.519072 204.835277a9.574453 9.574453 0 0 1-9.574453-9.574453V243.609406a40.140171 40.140171 0 0 1 40.024116-40.024117h81.324828a9.574453 9.574453 0 1 1 0 19.148907h-81.339334a20.991264 20.991264 0 0 0-20.87521 20.87521v174.80631a9.516426 9.516426 0 0 1-9.574454 9.284318z m0 57.171093a9.574453 9.574453 0 0 1-9.574453-9.574454V458.729968a9.574453 9.574453 0 0 1 9.574453-9.574454 9.400373 9.400373 0 0 1 9.574453 9.574454v16.581212a9.574453 9.574453 0 0 1-9.574453 9.574454z m376.638691 466.972208H282.314664a40.140171 40.140171 0 0 1-40.024117-40.024117v-398.355292a9.574453 9.574453 0 0 1 9.574453-9.574453 9.400373 9.400373 0 0 1 9.574454 9.574453v398.355292a20.991264 20.991264 0 0 0 20.87521 20.87521h346.203534a9.574453 9.574453 0 0 1 9.574453 9.574454 9.400373 9.400373 0 0 1-9.574453 9.574453z m52.746534 0h-22.311378a9.574453 9.574453 0 0 1 0-19.148907h22.296871a9.574453 9.574453 0 0 1 0 19.148907z m119.071385 0h-70.053084a9.574453 9.574453 0 0 1 0-19.148907h70.038578a20.991264 20.991264 0 0 0 20.875209-20.87521v-100.763869a9.574453 9.574453 0 1 1 19.148907 0v100.763869a39.951583 39.951583 0 0 1-40.024116 40.024117z m30.46417-376.348555a9.574453 9.574453 0 0 1-9.574453-9.574454v-322.049799a20.991264 20.991264 0 0 0-20.87521-20.87521H468.262156a9.574453 9.574453 0 0 1 0-19.148907h332.059455a40.140171 40.140171 0 0 1 40.024116 40.024117v322.049799a9.313332 9.313332 0 0 1-9.574453 9.574454z" fill="#FF811C" p-id="6144"></path><path d="M738.218224 782.331989h-385.879489a4.352024 4.352024 0 0 1-4.352024-4.352025v-27.765915a4.352024 4.352024 0 0 1 4.352024-4.352024h386.169624a4.352024 4.352024 0 0 1 4.352024 4.352024v27.765915a4.627653 4.627653 0 0 1-4.656666 4.352025z m11.706945 116.735798H352.280708a4.352024 4.352024 0 0 1-4.352024-4.352024V866.949848a4.352024 4.352024 0 0 1 4.352024-4.352024h397.789528a4.352024 4.352024 0 0 1 4.352025 4.352024v27.765915a4.482585 4.482585 0 0 1-4.497092 4.352024zM454.915948 433.314146H340.602776a7.746603 7.746603 0 0 1-7.80463-7.804631v-114.342185a7.746603 7.746603 0 0 1 7.80463-7.80463h114.313172a7.746603 7.746603 0 0 1 7.80463 7.80463v114.342185a7.746603 7.746603 0 0 1-7.80463 7.804631z" fill="#FFE4D2" p-id="6145"></path><path d="M620.118791 36.293475a3.52514 3.52514 0 0 0-0.304642-6.905212 3.597673 3.597673 0 0 1-1.653769-6.455503c3.002897-2.393613 0.449709-7.354921-3.147965-6.150861A3.61218 3.61218 0 0 1 610.819965 11.632004a3.539646 3.539646 0 0 0-5.39651-4.352025 3.554153 3.554153 0 0 1-5.802699-3.002897 3.597673 3.597673 0 0 0-6.905212-1.653769 3.626687 3.626687 0 0 1-6.60057-0.304641 3.56866 3.56866 0 0 0-6.905212 1.044485 3.61218 3.61218 0 0 1-6.194381 2.466147 3.597673 3.597673 0 0 0-5.802699 3.902316 3.539646 3.539646 0 0 1-4.656666 4.642159 3.583167 3.583167 0 0 0-3.902315 5.802699 3.61218 3.61218 0 0 1-2.393614 6.150861 3.56866 3.56866 0 0 0-1.044486 6.905212 3.583167 3.583167 0 0 1 0.304642 6.60057c-3.452606 1.653769-1.943904 7.253374 1.653769 6.905212a3.583167 3.583167 0 0 1 3.002897 5.802699 3.554153 3.554153 0 0 0 4.352024 5.39651 3.626687 3.626687 0 0 1 5.106376 4.206957 3.52514 3.52514 0 0 0 6.150861 3.147964 3.6557 3.6557 0 0 1 6.455502 1.65377 3.496126 3.496126 0 0 0 6.905212 0.304641 3.554153 3.554153 0 0 1 6.455503-1.044486c2.248546 3.147964 7.253374 1.20406 6.60057-2.40812a3.626687 3.626687 0 0 1 5.323977-3.6557 3.56866 3.56866 0 0 0 4.946801-4.990321 3.554153 3.554153 0 0 1 3.757247-5.367497 3.554153 3.554153 0 0 0 2.393614-6.60057 4.221464 4.221464 0 0 1 1.450674-6.905212z m-32.103433 14.4052a16.204037 16.204037 0 1 1 16.204037-16.204037 16.233051 16.233051 0 0 1-16.204037 16.204037z" fill="#C3EDFF" p-id="6146"></path><path d="M276.062255 44.533307a2.625721 2.625721 0 0 0-0.304641-5.106375 2.611215 2.611215 0 0 1-1.20406-4.656666 2.480654 2.480654 0 0 0-2.248546-4.352024 2.654735 2.654735 0 0 1-3.002897-3.757248 2.567694 2.567694 0 0 0-3.902315-3.147964 2.596708 2.596708 0 0 1-4.206957-2.248546 2.596708 2.596708 0 0 0-4.946801-1.20406 2.509667 2.509667 0 0 1-4.656666-0.304642 2.553188 2.553188 0 0 0-4.946801 0.754351 2.553188 2.553188 0 0 1-4.352024 1.653769 2.567694 2.567694 0 0 0-4.206957 2.698255 2.669242 2.669242 0 0 1-3.380072 3.467113 2.538681 2.538681 0 0 0-2.698255 4.206957 2.538681 2.538681 0 0 1-1.65377 4.352024 2.553188 2.553188 0 0 0-0.75435 4.946801 2.509667 2.509667 0 0 1 0.304641 4.656666 2.625721 2.625721 0 0 0 1.20406 4.946801 2.567694 2.567694 0 0 1 2.248546 4.206957A2.567694 2.567694 0 0 0 236.444327 59.504271a2.654735 2.654735 0 0 1 3.757248 3.002897 2.495161 2.495161 0 0 0 4.352024 2.248546 2.669242 2.669242 0 0 1 4.656666 1.20406 2.625721 2.625721 0 0 0 5.106376 0.304641 2.538681 2.538681 0 0 1 4.656666-0.754351 2.509667 2.509667 0 0 0 4.627652-1.653769 2.40812 2.40812 0 0 1 3.902315-2.40812 2.741775 2.741775 0 0 0 3.757248-3.757248 2.480654 2.480654 0 0 1 2.393613-3.902315 2.495161 2.495161 0 0 0 1.668276-4.598639 2.654735 2.654735 0 0 1 0.754351-4.656666z m-23.109249 10.357818a11.605398 11.605398 0 1 1 11.605398-11.605398 11.460331 11.460331 0 0 1-11.605398 11.605398z" fill="#A8E65B" p-id="6147"></path><path d="M130.661123 237.502065c0 11.706945 3.002897 21.150838 6.60057 21.150838s6.60057-9.458399 6.600571-21.150838-3.002897-21.150838-6.600571-21.150838-6.60057 9.603467-6.60057 21.150838z m-19.80171 13.65085c5.39651 5.39651 11.097662 9.458399 15.304618 10.647953s5.802699-0.594777 4.656666-4.656666-5.265949-9.893602-10.720486-15.290112-11.097662-9.458399-15.304619-10.647953-5.802699 0.594777-4.656666 4.656666 5.251443 9.908109 10.647953 15.304619z m-25.807505 16.653746c0 3.597673 9.458399 6.60057 21.150839 6.60057S127.353585 271.404335 127.353585 267.806661 117.909692 261.148064 106.202747 261.148064s-21.150838 3.002897-21.150839 6.60057z m34.511553 26.402281c5.39651-5.39651 9.458399-11.097662 10.647953-15.304619s-0.594777-5.802699-4.656666-4.656666-9.908109 5.251443-15.304619 10.647953-9.443893 11.068648-10.647953 15.319126 0.594777 5.802699 4.656666 4.656666 9.908109-5.251443 15.304619-10.647953z m10.154724 4.801733c0 11.706945 3.002897 21.150838 6.60057 21.150839s6.60057-9.458399 6.60057-21.150839-3.002897-21.150838-6.60057-21.150838-6.55705 9.400373-6.55705 21.150838z m33.162425-13.360714c-5.39651-5.39651-11.097662-9.458399-15.304619-10.647953s-5.802699 0.594777-4.656666 4.656666 5.251443 9.908109 10.647953 15.304619 11.097662 9.458399 15.304619 10.647953 5.802699-0.594777 4.656666-4.656666-5.251443-9.908109-10.647953-15.304619z m-16.465159-16.798814c0 2.393613 4.047383 4.497092 10.502886 5.701152a62.553096 62.553096 0 0 0 21.150838 0c6.60057-1.20406 10.502885-3.452606 10.502885-5.701152s-4.047383-4.497092-10.502885-5.701152a62.640137 62.640137 0 0 0-21.150838 0c-6.455503 1.044486-10.502885 3.307538-10.502886 5.701152z m7.645056-26.706923c-5.39651 5.39651-9.458399 11.097662-10.647953 15.304619s0.594777 5.802699 4.656666 4.656666 9.908109-5.251443 15.304619-10.647953 9.458399-11.097662 10.647953-15.304618-0.594777-5.802699-4.656666-4.656666-9.908109 5.251443-15.304619 10.647952z m809.476522 306.397019c0 11.706945 3.002897 21.150838 6.60057 21.150838s6.60057-9.458399 6.60057-21.150838-3.002897-21.150838-6.60057-21.150839-6.60057 9.458399-6.60057 21.150839z m-19.961285 13.346208c8.254339 8.254339 17.103456 12.911005 19.656643 10.154723s-1.958411-11.402304-10.154723-19.656643-17.103456-12.911005-19.656643-10.154724 1.943904 11.402304 10.154723 19.656644zM917.971334 578.845839c0 2.40812 4.047383 4.497092 10.502886 5.701151a62.62563 62.62563 0 0 0 21.150838 0c6.60057-1.20406 10.502885-3.452606 10.502885-5.701151s-4.047383-4.497092-10.502885-5.701152a62.553096 62.553096 0 0 0-21.150838 0c-6.60057 1.044486-10.502885 3.293032-10.502886 5.701152z m34.366486 26.40228c8.254339-8.254339 12.911005-17.103456 10.154723-19.656643s-11.402304 1.943904-19.656643 10.154724-12.911005 17.103456-10.154723 19.656643 11.402304-1.943904 19.656643-10.154724z m10.357818 4.497092c0 11.706945 3.002897 21.150838 6.60057 21.150838s6.60057-9.458399 6.60057-21.150838-3.002897-21.150838-6.60057-21.150838-6.60057 9.458399-6.60057 21.150838z m33.162425-13.360714c-5.39651-5.39651-11.097662-9.458399-15.304619-10.647953s-5.802699 0.594777-4.656666 4.656666 5.251443 9.908109 10.647953 15.304619 11.097662 9.458399 15.304619 10.647952 5.802699-0.594777 4.656666-4.656666-5.39651-9.908109-10.647953-15.304618z m-16.653747-16.958389c0 2.393613 4.047383 4.497092 10.502886 5.701152a62.62563 62.62563 0 0 0 21.150838 0c6.60057-1.20406 10.502885-3.452606 10.502885-5.701152s-4.047383-4.497092-10.502885-5.701151a62.553096 62.553096 0 0 0-21.150838 0c-6.60057 1.20406-10.502885 3.452606-10.502886 5.701151z m7.659563-26.257213c-8.254339 8.254339-12.911005 17.103456-10.154723 19.656643s11.402304-1.958411 19.656643-10.154723 12.911005-17.103456 10.154723-19.656643-11.257236 1.943904-19.656643 10.154723z" fill="#F7D462" p-id="6148"></path><path d="M383.948938 87.2992a29.013495 29.013495 0 0 0 2.248546 12.301722c1.349128 2.553188 3.002897 2.553188 4.352024 0a29.013495 29.013495 0 0 0 2.27756-12.301722 29.013495 29.013495 0 0 0-2.248546-12.301723c-1.349128-2.553188-3.002897-2.553188-4.352025 0s-2.248546 7.253374-2.248545 12.301723z m-31.058947 20.701128c0 2.393613 6.455503 4.352024 14.260133 4.352025s14.260133-1.958411 14.260133-4.352025-6.455503-4.497092-14.260133-4.497091-14.260133 2.103478-14.260133 4.497091z m30.304596 20.860704a29.013495 29.013495 0 0 0 2.248546 12.301722c1.349128 2.553188 3.002897 2.553188 4.352024 0a29.013495 29.013495 0 0 0 2.248546-12.301722 29.013495 29.013495 0 0 0-2.248546-12.301722c-1.349128-2.553188-3.002897-2.553188-4.352024 0a29.013495 29.013495 0 0 0-2.248546 12.301722z m11.257236-20.410994c0 2.40812 6.455503 4.352024 14.260133 4.352024s14.260133-1.943904 14.260133-4.352024-6.455503-4.352024-14.260133-4.352025-14.260133 1.958411-14.260133 4.352025z" fill="#FF5F9A" p-id="6149"></path><path d="M860.350532 154.74107h2.85783v57.475734h-2.85783v-57.475734z" fill="#FF811C" p-id="6150"></path><path d="M861.017843 154.74107h2.857829v57.475734h-2.857829v-57.475734z" fill="#FF821D" p-id="6151"></path><path d="M861.685153 154.74107h2.843323v57.475734h-2.843323v-57.475734z" fill="#FF821E" p-id="6152"></path><path d="M862.352464 154.74107h2.843322v57.475734h-2.843322v-57.475734z" fill="#FF831F" p-id="6153"></path><path d="M863.005267 154.74107h2.85783v57.475734h-2.85783v-57.475734z" fill="#FF8320" p-id="6154"></path><path d="M863.672578 154.74107h2.857829v57.475734h-2.857829v-57.475734z" fill="#FF8421" p-id="6155"></path><path d="M864.339888 154.74107H867.197717v57.475734h-2.857829v-57.475734z" fill="#FF8422" p-id="6156"></path><path d="M865.007199 154.74107h2.843322v57.475734h-2.843322v-57.475734z" fill="#FF8523" p-id="6157"></path><path d="M865.674509 154.74107h2.843322v57.475734h-2.843322v-57.475734z" fill="#FF8524" p-id="6158"></path><path d="M866.327313 154.74107h2.857829v57.475734h-2.857829v-57.475734z" fill="#FF8625" p-id="6159"></path><path d="M866.994623 154.74107h2.857829v57.475734h-2.857829v-57.475734z" fill="#FF8626" p-id="6160"></path><path d="M867.661933 154.74107h2.843323v57.475734h-2.843323v-57.475734z" fill="#FF8727" p-id="6161"></path><path d="M868.329244 154.74107h2.843322v57.475734h-2.843322v-57.475734z" fill="#FF8728" p-id="6162"></path><path d="M868.996554 154.74107h2.843323v57.475734h-2.843323v-57.475734z" fill="#FF8829" p-id="6163"></path><path d="M869.649358 154.74107h2.857829v57.475734h-2.857829v-57.475734z" fill="#FF882A" p-id="6164"></path><path d="M870.316668 154.74107h2.857829v57.475734h-2.857829v-57.475734z" fill="#FF892B" p-id="6165"></path><path d="M870.983979 154.74107h2.843322v57.475734h-2.843322v-57.475734z" fill="#FF892C" p-id="6166"></path><path d="M871.651289 154.74107h2.843323v57.475734h-2.843323v-57.475734z" fill="#FF8A2D" p-id="6167"></path><path d="M872.304093 154.74107h2.857829v57.475734h-2.857829v-57.475734z" fill="#FF8A2E" p-id="6168"></path><path d="M872.971403 154.74107h2.857829v57.475734h-2.857829v-57.475734z" fill="#FF8B2F" p-id="6169"></path><path d="M873.638713 154.74107h2.85783v57.475734h-2.85783v-57.475734z" fill="#FF8C30" p-id="6170"></path><path d="M874.306024 154.74107h2.843322v57.475734h-2.843322v-57.475734z" fill="#FF8C31" p-id="6171"></path><path d="M874.973334 154.74107h2.843323v57.475734h-2.843323v-57.475734z" fill="#FF8D32" p-id="6172"></path><path d="M875.640645 154.74107h2.843322v57.475734h-2.843322v-57.475734z" fill="#FF8D33" p-id="6173"></path><path d="M876.293448 154.74107h2.85783v57.475734h-2.85783v-57.475734z" fill="#FF8E34" p-id="6174"></path><path d="M876.960759 154.74107h2.857829v57.475734h-2.857829v-57.475734z" fill="#FF8E35" p-id="6175"></path><path d="M877.628069 154.74107h2.843323v57.475734h-2.843323v-57.475734z" fill="#FF8F36" p-id="6176"></path><path d="M878.295379 154.74107h2.843323v57.475734h-2.843323v-57.475734z" fill="#FF8F37" p-id="6177"></path><path d="M878.96269 154.74107h2.843322v57.475734h-2.843322v-57.475734z" fill="#FF9038" p-id="6178"></path><path d="M879.615493 154.74107h2.85783v57.475734h-2.85783v-57.475734z" fill="#FF9039" p-id="6179"></path><path d="M880.282804 154.74107h2.857829v57.475734h-2.857829v-57.475734z" fill="#FF913A" p-id="6180"></path><path d="M880.950114 154.74107h2.843323v57.475734h-2.843323v-57.475734z" fill="#FF913B" p-id="6181"></path><path d="M881.617425 154.74107h2.843322v57.475734h-2.843322v-57.475734z" fill="#FF923C" p-id="6182"></path><path d="M882.270228 154.74107h2.85783v57.475734h-2.85783v-57.475734z" fill="#FF923D" p-id="6183"></path><path d="M882.937539 154.74107h2.857829v57.475734h-2.857829v-57.475734z" fill="#FF933E" p-id="6184"></path><path d="M883.604849 154.74107h2.843323v57.475734h-2.843323v-57.475734z" fill="#FF933F" p-id="6185"></path><path d="M884.272159 154.74107h2.843323v57.475734h-2.843323v-57.475734z" fill="#FF9440" p-id="6186"></path><path d="M884.93947 154.74107h2.843322v57.475734h-2.843322v-57.475734z" fill="#FF9441" p-id="6187"></path><path d="M885.592273 154.74107h2.85783v57.475734h-2.85783v-57.475734z" fill="#FF9542" p-id="6188"></path><path d="M886.259584 154.74107h2.857829v57.475734h-2.857829v-57.475734z" fill="#FF9643" p-id="6189"></path><path d="M886.926894 154.74107h2.85783v57.475734h-2.85783v-57.475734z" fill="#FF9644" p-id="6190"></path><path d="M887.594205 154.74107h2.843322v57.475734h-2.843322v-57.475734z" fill="#FF9745" p-id="6191"></path><path d="M888.261515 154.74107h2.843323v57.475734h-2.843323v-57.475734z" fill="#FF9746" p-id="6192"></path><path d="M888.914319 154.74107h2.857829v57.475734h-2.857829v-57.475734z" fill="#FF9847" p-id="6193"></path><path d="M889.581629 154.74107h2.857829v57.475734h-2.857829v-57.475734z" fill="#FF9848" p-id="6194"></path><path d="M890.24894 154.74107h2.857829v57.475734h-2.857829v-57.475734z" fill="#FF9949" p-id="6195"></path><path d="M890.91625 154.74107h2.843322v57.475734h-2.843322v-57.475734z" fill="#FF994A" p-id="6196"></path><path d="M891.58356 154.74107h2.843323v57.475734h-2.843323v-57.475734z" fill="#FF9A4B" p-id="6197"></path><path d="M892.236364 154.74107h2.857829v57.475734h-2.857829v-57.475734z" fill="#FF9A4C" p-id="6198"></path><path d="M892.903674 154.74107h2.85783v57.475734h-2.85783v-57.475734z" fill="#FF9B4D" p-id="6199"></path><path d="M893.570985 154.74107h2.843322v57.475734h-2.843322v-57.475734z" fill="#FF9B4E" p-id="6200"></path><path d="M894.238295 154.74107h2.843323v57.475734h-2.843323v-57.475734z" fill="#FF9C4F" p-id="6201"></path><path d="M894.905606 154.74107h2.843322v57.475734h-2.843322v-57.475734z" fill="#FF9C50" p-id="6202"></path><path d="M895.558409 154.74107h2.857829v57.475734h-2.857829v-57.475734z" fill="#FF9D51" p-id="6203"></path><path d="M896.22572 154.74107h2.857829v57.475734h-2.857829v-57.475734z" fill="#FF9D52" p-id="6204"></path><path d="M896.89303 154.74107h2.843322v57.475734h-2.843322v-57.475734z" fill="#FF9E53" p-id="6205"></path><path d="M897.56034 154.74107h2.843323v57.475734h-2.843323v-57.475734z" fill="#FF9E54" p-id="6206"></path><path d="M898.213144 154.74107h2.857829v57.475734h-2.857829v-57.475734z" fill="#FF9F55" p-id="6207"></path><path d="M898.880454 154.74107h2.85783v57.475734h-2.85783v-57.475734z" fill="#FFA056" p-id="6208"></path><path d="M899.547765 154.74107h2.857829v57.475734h-2.857829v-57.475734z" fill="#FFA057" p-id="6209"></path><path d="M900.215075 154.74107h2.843323v57.475734h-2.843323v-57.475734z" fill="#FFA158" p-id="6210"></path><path d="M900.882386 154.74107h2.843322v57.475734h-2.843322v-57.475734z" fill="#FFA159" p-id="6211"></path><path d="M901.535189 154.74107h2.85783v57.475734h-2.85783v-57.475734z" fill="#FFA25A" p-id="6212"></path><path d="M902.2025 154.74107h2.857829v57.475734h-2.857829v-57.475734z" fill="#FFA25B" p-id="6213"></path><path d="M902.86981 154.74107h2.857829v57.475734h-2.857829v-57.475734z" fill="#FFA35C" p-id="6214"></path><path d="M903.53712 154.74107h2.843323v57.475734h-2.843323v-57.475734z" fill="#FFA35D" p-id="6215"></path><path d="M904.204431 154.74107h2.843322v57.475734h-2.843322v-57.475734z" fill="#FFA45E" p-id="6216"></path><path d="M904.857234 154.74107h2.85783v57.475734h-2.85783v-57.475734z" fill="#FFA45F" p-id="6217"></path><path d="M905.524545 154.74107h2.857829v57.475734h-2.857829v-57.475734z" fill="#FFA560" p-id="6218"></path><path d="M906.191855 154.74107h2.85783v57.475734h-2.85783v-57.475734z" fill="#FFA561" p-id="6219"></path><path d="M906.859166 154.74107h2.843322v57.475734h-2.843322v-57.475734z" fill="#FFA662" p-id="6220"></path><path d="M907.526476 154.74107h2.843323v57.475734h-2.843323v-57.475734z" fill="#FFA663" p-id="6221"></path><path d="M908.17928 154.74107h2.857829v57.475734h-2.857829v-57.475734z" fill="#FFA764" p-id="6222"></path><path d="M908.84659 154.74107h2.857829v57.475734h-2.857829v-57.475734z" fill="#FFA765" p-id="6223"></path><path d="M909.5139 154.74107h2.85783v57.475734h-2.85783v-57.475734z" fill="#FFA866" p-id="6224"></path><path d="M910.181211 154.74107h2.843322v57.475734h-2.843322v-57.475734z" fill="#FFA967" p-id="6225"></path><path d="M910.848521 154.74107h2.843323v57.475734h-2.843323v-57.475734z" fill="#FFA968" p-id="6226"></path><path d="M911.501325 154.74107h2.857829v57.475734h-2.857829v-57.475734z" fill="#FFAA69" p-id="6227"></path><path d="M912.168635 154.74107h2.85783v57.475734H912.168635v-57.475734z" fill="#FFAA6A" p-id="6228"></path><path d="M912.835946 154.74107h2.843322v57.475734h-2.843322v-57.475734z" fill="#FFAB6B" p-id="6229"></path><path d="M913.503256 154.74107h2.843323v57.475734h-2.843323v-57.475734z" fill="#FFAB6C" p-id="6230"></path><path d="M914.170566 154.74107h2.843323v57.475734h-2.843323v-57.475734z" fill="#FFAC6D" p-id="6231"></path><path d="M914.82337 154.74107h2.857829v57.475734h-2.857829v-57.475734z" fill="#FFAC6E" p-id="6232"></path><path d="M915.49068 154.74107h2.85783v57.475734h-2.85783v-57.475734z" fill="#FFAD6F" p-id="6233"></path><path d="M916.157991 154.74107h2.857829v57.475734h-2.857829v-57.475734z" fill="#FFAD70" p-id="6234"></path><path d="M916.825301 154.74107h2.843323v57.475734h-2.843323v-57.475734z" fill="#FFAE71" p-id="6235"></path><path d="M917.478105 154.74107h2.857829v57.475734h-2.857829v-57.475734z" fill="#FFAE72" p-id="6236"></path><path d="M918.145415 154.74107h2.85783v57.475734h-2.85783v-57.475734z" fill="#FFAF73" p-id="6237"></path><path d="M918.812726 154.74107h2.857829v57.475734h-2.857829v-57.475734z" fill="#FFAF74" p-id="6238"></path><path d="M919.480036 154.74107H922.323359v57.475734h-2.843323v-57.475734z" fill="#FFB075" p-id="6239"></path><path d="M920.147347 154.74107h2.843322v57.475734h-2.843322v-57.475734z" fill="#FFB076" p-id="6240"></path><path d="M920.814657 154.74107h2.843322v57.475734h-2.843322v-57.475734z" fill="#FFB177" p-id="6241"></path><path d="M921.467461 154.74107h2.857829v57.475734h-2.857829v-57.475734z" fill="#FFB178" p-id="6242"></path><path d="M922.134771 154.74107h2.857829v57.475734h-2.857829v-57.475734z" fill="#FFB279" p-id="6243"></path><path d="M922.802081 154.74107h2.843323v57.475734h-2.843323v-57.475734z" fill="#FFB37A" p-id="6244"></path><path d="M923.469392 154.74107h2.843322v57.475734h-2.843322v-57.475734z" fill="#FFB37B" p-id="6245"></path><path d="M924.136702 154.74107h2.843323v57.475734h-2.843323v-57.475734z" fill="#FFB47C" p-id="6246"></path><path d="M924.789506 154.74107h2.857829v57.475734h-2.857829v-57.475734z" fill="#FFB47D" p-id="6247"></path><path d="M925.456816 154.74107h2.857829v57.475734h-2.857829v-57.475734z" fill="#FFB57E" p-id="6248"></path><path d="M926.124127 154.74107h2.843322v57.475734h-2.843322v-57.475734z" fill="#FFB57F" p-id="6249"></path><path d="M926.791437 154.74107h2.843323v57.475734h-2.843323v-57.475734z" fill="#FFB680" p-id="6250"></path><path d="M927.444241 154.74107h2.857829v57.475734h-2.857829v-57.475734z" fill="#FFB681" p-id="6251"></path><path d="M928.111551 154.74107h2.857829v57.475734h-2.857829v-57.475734z" fill="#FFB782" p-id="6252"></path><path d="M928.778861 154.74107h2.85783v57.475734h-2.85783v-57.475734z" fill="#FFB783" p-id="6253"></path><path d="M929.446172 154.74107h2.843322v57.475734h-2.843322v-57.475734z" fill="#FFB884" p-id="6254"></path><path d="M930.113482 154.74107h2.843323v57.475734h-2.843323v-57.475734z" fill="#FFB885" p-id="6255"></path><path d="M930.766286 154.74107h2.857829v57.475734h-2.857829v-57.475734z" fill="#FFB986" p-id="6256"></path><path d="M931.433596 154.74107h2.85783v57.475734h-2.85783v-57.475734z" fill="#FFB987" p-id="6257"></path><path d="M932.100907 154.74107h2.857829v57.475734h-2.857829v-57.475734z" fill="#FFBA88" p-id="6258"></path><path d="M932.768217 154.74107h2.843323v57.475734h-2.843323v-57.475734z" fill="#FFBA89" p-id="6259"></path><path d="M933.435527 154.74107h2.843323v57.475734h-2.843323v-57.475734z" fill="#FFBB8A" p-id="6260"></path><path d="M934.088331 154.74107h2.857829v57.475734h-2.857829v-57.475734z" fill="#FFBB8B" p-id="6261"></path><path d="M934.755641 154.74107h2.85783v57.475734h-2.85783v-57.475734z" fill="#FFBC8C" p-id="6262"></path><path d="M935.422952 154.74107H938.280781v57.475734h-2.857829v-57.475734z" fill="#FFBD8D" p-id="6263"></path><path d="M936.090262 154.74107h2.843323v57.475734h-2.843323v-57.475734z" fill="#FFBD8E" p-id="6264"></path><path d="M936.757573 154.74107h2.843322v57.475734h-2.843322v-57.475734z" fill="#FFBE8F" p-id="6265"></path><path d="M937.410376 154.74107h2.85783v57.475734h-2.85783v-57.475734z" fill="#FFBE90" p-id="6266"></path><path d="M938.077687 154.74107h2.857829v57.475734h-2.857829v-57.475734z" fill="#FFBF91" p-id="6267"></path><path d="M938.744997 154.74107h2.857829v57.475734h-2.857829v-57.475734z" fill="#FFBF92" p-id="6268"></path><path d="M939.412307 154.74107h2.843323v57.475734h-2.843323v-57.475734z" fill="#FFC093" p-id="6269"></path><path d="M940.079618 154.74107h2.843322v57.475734h-2.843322v-57.475734z" fill="#FFC094" p-id="6270"></path><path d="M940.732421 154.74107h2.85783v57.475734h-2.85783v-57.475734z" fill="#FFC195" p-id="6271"></path><path d="M941.399732 154.74107h2.857829v57.475734h-2.857829v-57.475734z" fill="#FFC196" p-id="6272"></path><path d="M942.067042 154.74107h2.85783v57.475734h-2.85783v-57.475734z" fill="#FFC297" p-id="6273"></path><path d="M942.734353 154.74107h2.843322v57.475734h-2.843322v-57.475734z" fill="#FFC298" p-id="6274"></path><path d="M943.387156 154.74107h2.85783v57.475734h-2.85783v-57.475734z" fill="#FFC399" p-id="6275"></path><path d="M944.054467 154.74107h2.857829v57.475734h-2.857829v-57.475734z" fill="#FFC39A" p-id="6276"></path><path d="M944.721777 154.74107h2.857829v57.475734h-2.857829v-57.475734z" fill="#FFC49B" p-id="6277"></path><path d="M945.389088 154.74107h2.857829v57.475734h-2.857829v-57.475734z" fill="#FFC49C" p-id="6278"></path><path d="M946.056398 154.74107h2.843322v57.475734h-2.843322v-57.475734z" fill="#FFC59D" p-id="6279"></path><path d="M946.723708 154.74107h2.843323v57.475734h-2.843323v-57.475734z" fill="#FFC59E" p-id="6280"></path><path d="M947.376512 154.74107h2.857829v57.475734h-2.857829v-57.475734z" fill="#FFC69F" p-id="6281"></path><path d="M813.943447 577.714312a110.454377 110.454377 0 1 0 110.454377 110.454377 110.613951 110.613951 0 0 0-110.454377-110.454377z" fill="#FF811C" p-id="6282"></path><path d="M894.760538 642.675528a11.706945 11.706945 0 0 0-16.552199 0l-85.140102 85.082076-44.086007-44.086007a11.706945 11.706945 0 0 0-16.552199 0 11.706945 11.706945 0 0 0 0 16.5522l52.369359 52.369359a11.706945 11.706945 0 0 0 16.5522 0L894.760538 659.256741a11.706945 11.706945 0 0 0 0-16.581213z" fill="#FFFFFF" p-id="6283"></path></svg>