<?xml version="1.0" standalone="no"?><!DOCTYPE svg PUBLIC "-//W3C//DTD SVG 1.1//EN" "http://www.w3.org/Graphics/SVG/1.1/DTD/svg11.dtd"><svg t="1544517280763" class="icon" style="" viewBox="0 0 1357 1024" version="1.1" xmlns="http://www.w3.org/2000/svg" p-id="4936" xmlns:xlink="http://www.w3.org/1999/xlink" width="169.625" height="128"><defs><style type="text/css"></style></defs><path d="M660.951624 512.339298m-505.553347 0a505.553347 505.553347 0 1 0 1011.106693 0 505.553347 505.553347 0 1 0-1011.106693 0Z" fill="#FFF2E6" p-id="4937"></path><path d="M660.951624 511.660702m-457.373095 0a457.373095 457.373095 0 1 0 914.746189 0 457.373095 457.373095 0 1 0-914.746189 0Z" fill="#FCE5D0" p-id="4938"></path><path d="M861.137177 445.836978h28.500994v53.609013h-28.500994v-53.609013z" fill="#F9CA9B" p-id="4939"></path><path d="M922.889331 410.550033l-4.071571 4.750166c0 27.822399-22.393638 50.216037-50.216037 50.216037H422.764745c-27.822399 0-50.216037-22.393638-50.216037-50.216037V330.475812c0-27.822399 22.393638-50.216037 50.216037-50.216037H868.601723c27.822399 0 50.216037 22.393638 50.216037 50.216037l4.071571 48.180252" fill="#FFE2C2" p-id="4940"></path><path d="M889.638171 487.909874V381.370444s2.035785-38.67992 21.715043-38.67992h-26.465209l-25.786613 15.607687-4.750166 40.715706 1.35719 86.181577 1.35719 2.71438v-2.71438l32.572565 2.71438z" fill="#F9CA9B" p-id="4941"></path><path d="M866.565938 470.944997H420.72896c-30.536779 0-54.966203-24.429423-54.966203-54.966203V330.475812c0-30.536779 24.429423-54.966203 54.966203-54.966203h445.836978c30.536779 0 54.966203 24.429423 54.966202 54.966203v52.251822h-10.178926v-52.251822c0-25.108019-20.357853-45.465871-45.465871-45.465872H420.72896c-25.108019 0-45.465871 20.357853-45.465872 45.465872v84.824387c0 25.108019 20.357853 45.465871 45.465872 45.465871h445.836978c25.108019 0 45.465871-20.357853 45.465871-45.465871v-9.500332h10.178927v9.500332c-0.678595 30.536779-25.108019 55.644798-55.644798 55.644798z" fill="#F94803" p-id="4942"></path><path d="M335.904573 392.227966H325.725646v-61.752154c0-52.251822 42.751491-94.324718 95.003314-95.003314h445.836978c52.251822 0 94.324718 42.751491 95.003313 95.003314v42.072896h-10.178926v-42.072896c0-46.823062-38.001325-84.824387-84.824387-84.824387H420.72896c-46.823062 0-84.824387 38.001325-84.824387 84.824387v61.752154z m530.661365 118.075546H420.72896c-52.251822 0-94.324718-42.751491-95.003314-95.003313h10.178927c0 46.823062 38.001325 84.824387 84.824387 84.824387h445.836978c46.823062 0 84.824387-38.001325 84.824387-84.824387h10.178926c0 52.251822-42.751491 95.003313-95.003313 95.003313zM720.667992 225.972167c0 4.071571 3.392975 8.143141 8.143141 8.143141s8.143141-3.392975 8.143141-8.143141c0-4.071571-3.392975-8.143141-8.143141-8.143141-1.35719 0-2.71438 0.678595-4.07157 1.35719-2.71438 1.35719-4.071571 4.071571-4.071571 6.785951z" fill="#F94803" p-id="4943"></path><path d="M842.136514 227.329357c0 4.071571 3.392975 8.143141 8.143141 8.143141 4.071571 0 8.143141-3.392975 8.143142-8.143141 0-4.071571-3.392975-8.143141-8.143142-8.143141-1.35719 0-2.71438 0.678595-4.07157 1.35719-2.71438 1.35719-4.071571 4.071571-4.071571 6.785951zM411.228628 209.685885c0 3.392975 2.71438 6.107356 6.107356 6.107356s6.107356-2.71438 6.107356-6.107356-2.71438-6.107356-6.107356-6.107356-6.107356 2.71438-6.107356 6.107356zM598.520875 183.899271c0 4.750166 3.392975 8.143141 8.143141 8.143141s8.143141-3.392975 8.143141-8.143141S610.735586 176.434725 606.664016 176.434725c-1.35719 0-2.71438 0.678595-4.071571 1.35719-2.71438 0.678595-4.071571 3.392975-4.07157 6.107356zM510.303512 219.864811c0 3.392975 2.71438 5.428761 5.428761 5.428761 3.392975 0 5.428761-2.71438 5.428761-5.428761s-2.71438-5.428761-5.428761-5.428761-5.428761 2.71438-5.428761 5.428761z" fill="#F94803" p-id="4944"></path><path d="M859.101392 358.298211l-3.392976 515.732273H411.228628l8.821736-517.768059s9.500331-4.071571 10.178927-10.178926h443.801193c-0.678595 6.107356-14.929092 12.214712-14.929092 12.214712z" fill="#FFFFFF" p-id="4945"></path><path d="M903.888668 340.654738c-38.67992 0-46.823062 25.786614-48.180252 40.715706H411.907223c2.035785-14.929092 10.178926-40.715706 48.180252-40.715706h443.801193z" fill="#FFE2C2" p-id="4946"></path><path d="M634.486415 794.634858c-92.288933 0-166.934394-74.645461-166.934394-166.934394 0-92.288933 74.645461-166.934394 166.934394-166.934394 92.288933 0 166.934394 74.645461 166.934393 166.934394 0 16.964877-2.71438 33.929755-7.464546 50.216037l-20.357852-6.107356c24.429423-77.359841-18.322068-159.469848-95.003314-183.899271-77.359841-24.429423-159.469848 18.322068-183.899271 95.003314s18.322068 159.469848 95.003314 183.899271c48.858847 15.607687 101.789264 4.750166 140.469184-29.17959l13.571902 15.607688c-30.536779 26.465209-69.895295 41.394301-109.25381 41.394301z" fill="#F94803" p-id="4947"></path><path d="M512.339298 627.700464c0 67.180915 54.966203 122.147117 122.147117 122.147117s122.147117-54.966203 122.147117-122.147117-54.966203-122.147117-122.147117-122.147117c-21.715043 0-42.751491 5.428761-61.073559 16.286282-38.001325 21.715043-61.073559 62.430749-61.073558 105.860835z" fill="#FFDDD2" p-id="4948"></path><path d="M609.378396 694.881378c-2.71438 0-5.428761-1.35719-7.464546-2.71438l-63.109344-63.109344c-3.392975-4.071571-3.392975-10.857522 1.35719-14.929092 4.071571-3.392975 9.500331-3.392975 13.571902 0l55.644798 55.644798L715.239231 563.23393c4.071571-3.392975 10.857522-3.392975 14.929092 1.35719 3.392975 4.071571 3.392975 9.500331 0 13.571902l-113.325381 113.325381c-2.71438 2.035785-4.750166 3.392975-7.464546 3.392975z" fill="#F94803" p-id="4949"></path><path d="M422.764745 829.921803h-10.178927c-2.71438 0-5.428761-2.035785-5.42876-5.428761s2.035785-5.428761 5.42876-5.428761h10.178927c2.71438 0 5.428761 2.035785 5.428761 5.428761s-2.71438 5.428761-5.428761 5.428761z m388.83499 0h-19.679258c-2.71438 0-5.428761-2.035785-5.428761-5.428761s2.035785-5.428761 5.428761-5.428761h19.679258c2.71438 0 5.428761 2.035785 5.428761 5.428761s-2.71438 5.428761-5.428761 5.428761z m-48.180252 0h-19.679258c-2.71438 0-5.428761-2.035785-5.42876-5.428761s2.035785-5.428761 5.42876-5.428761h19.679258c2.71438 0 5.428761 2.035785 5.428761 5.428761s-2.71438 5.428761-5.428761 5.428761z m-48.858847 0h-19.679258c-2.71438 0-5.428761-2.035785-5.42876-5.428761s2.035785-5.428761 5.42876-5.428761h19.679258c2.71438 0 5.428761 2.035785 5.428761 5.428761s-2.71438 5.428761-5.428761 5.428761z m-48.858847 0h-19.679258c-2.71438 0-5.428761-2.035785-5.42876-5.428761s2.035785-5.428761 5.42876-5.428761h19.679258c2.71438 0 5.428761 2.035785 5.428761 5.428761s-2.035785 5.428761-5.428761 5.428761z m-48.180252 0h-19.679257c-2.71438 0-5.428761-2.035785-5.428761-5.428761s2.035785-5.428761 5.428761-5.428761H617.521537c2.71438 0 5.428761 2.035785 5.428761 5.428761s-2.71438 5.428761-5.428761 5.428761z m-48.858846 0h-19.679258c-2.71438 0-5.428761-2.035785-5.428761-5.428761s2.035785-5.428761 5.428761-5.428761h19.679258c2.71438 0 5.428761 2.035785 5.42876 5.428761s-2.71438 5.428761-5.42876 5.428761z m-48.180252 0h-19.679258c-2.71438 0-5.428761-2.035785-5.428761-5.428761s2.035785-5.428761 5.428761-5.428761h19.679258c2.71438 0 5.428761 2.035785 5.42876 5.428761s-2.71438 5.428761-5.42876 5.428761z m-48.858847 0h-19.679258c-2.71438 0-5.428761-2.035785-5.428761-5.428761s2.035785-5.428761 5.428761-5.428761h19.679258c2.71438 0 5.428761 2.035785 5.428761 5.428761s-2.71438 5.428761-5.428761 5.428761z m379.334658 0h-10.178926c-2.71438 0-5.428761-2.035785-5.428761-5.428761s2.035785-5.428761 5.428761-5.428761h10.178926c2.71438 0 5.428761 2.035785 5.428761 5.428761s-2.035785 5.428761-5.428761 5.428761z" fill="#FFAC90" p-id="4950"></path><path d="M412.585818 424.80053h441.086813v10.178927h-441.086813v-10.178927z" fill="#F9744B" p-id="4951"></path><path d="M499.445991 124.182903l4.750165 8.821736c3.392975 6.785951 9.500331 12.893307 16.286283 16.286282l8.821736 4.750166-8.821736 4.750165c-6.785951 4.071571-12.214712 9.500331-16.286283 16.286283l-4.750165 8.821736-4.750166-8.821736c-4.071571-6.785951-9.500331-12.214712-16.286282-16.286283l-8.821737-4.750165 8.821737-4.750166c6.785951-4.071571 12.214712-9.500331 16.286282-16.286282l4.750166-8.821736z m161.505633 34.608349l3.392975 6.107356c2.71438 4.750166 6.785951 8.821736 11.536117 11.536117l6.107356 3.392975-6.107356 3.392976c-4.750166 2.71438-8.821736 6.785951-11.536117 11.536117l-3.392975 6.107355-3.392976-6.107355c-2.71438-4.750166-6.785951-8.821736-11.536117-11.536117l-6.107355-3.392976 6.107355-3.392975c4.750166-2.71438 8.821736-6.785951 11.536117-11.536117l3.392976-6.107356z m118.754141-32.572564l4.071571 8.143141c3.392975 6.107356 8.821736 11.536117 14.929092 14.929092l8.143141 4.071571-8.143141 4.07157c-6.107356 3.392975-11.536117 8.821736-14.929092 14.929092l-4.071571 8.143142-4.07157-8.143142c-3.392975-6.107356-8.821736-11.536117-14.929092-14.929092l-8.143141-4.07157 7.464546-4.071571c6.107356-3.392975 11.536117-8.821736 14.929092-14.929092l4.750165-8.143141zM847.565275 740.34725v125.540093H418.693174v-475.016568s-1.35719-19.000663 10.178927-31.215374c6.785951-7.464546 17.643472-11.536117 31.215374-11.536117H861.815772c-0.678595 0-0.678595 0.678595-0.678595 1.35719-14.929092 16.286282-13.571902 39.358516-13.571902 42.751492v297.224652h15.607687v-298.581843s-1.35719-19.000663 10.178927-31.215374c6.785951-7.464546 17.643472-11.536117 31.215374-11.536117 4.071571 0 7.464546-3.392975 7.464546-7.464546 0-4.071571-3.392975-7.464546-7.464546-7.464546H460.087475c-18.322068 0-33.25116 5.428761-42.751491 16.286282-14.929092 16.286282-13.571902 39.358516-13.571902 42.751492v481.802518c0 4.071571 3.392975 7.464546 7.464546 7.464546H855.029821c4.071571 0 7.464546-3.392975 7.464546-7.464546v-133.004639h-14.929092z" fill="#F94803" p-id="4952"></path></svg>